<svg width="24" height="22" viewBox="0 0 24 22" fill="none" xmlns="http://www.w3.org/2000/svg">
<path fill-rule="evenodd" clip-rule="evenodd" d="M11.7472 0C18.2356 0 23.4953 4.14942 23.4953 9.26758C23.4953 14.3857 18.2356 18.5342 11.7472 18.5342C11.0259 18.5342 10.32 18.4822 9.63536 18.3839L4.87261 21.5944C4.81094 21.6436 4.73777 21.6667 4.66361 21.6667C4.57694 21.6667 4.49127 21.6339 4.42577 21.5684C4.33527 21.4779 4.30344 21.3451 4.34486 21.2227L5.45227 17.0926C2.17436 15.4478 -0.000976562 12.558 -0.000976562 9.26758C-0.000976562 4.14942 5.25869 0 11.7472 0ZM9.28486 6.57508C8.84669 6.57508 8.56552 6.91308 8.44902 7.229L6.81777 11.5431C6.80136 11.5854 6.76669 11.674 6.76669 11.7896C6.76669 12.0804 7.00936 12.3086 7.31944 12.3086C7.60061 12.3086 7.77202 12.1824 7.85969 11.9099L8.11102 11.1511H10.4597L10.7053 11.9186C10.7919 12.1805 10.9719 12.3086 11.2532 12.3086C11.5344 12.3086 11.7654 12.0957 11.7654 11.8232C11.7654 11.7799 11.7519 11.6702 11.7019 11.5353L10.1207 7.228C9.97336 6.813 9.66911 6.57508 9.28394 6.57508H9.28486ZM6.99786 6.62517H3.51094C3.18452 6.62517 3.00827 6.88908 3.00827 7.1365C3.00827 7.3715 3.14019 7.64592 3.51094 7.64592H4.69344V11.7202C4.69344 12.0823 4.90919 12.3077 5.25486 12.3077C5.60061 12.3077 5.81727 12.0823 5.81727 11.7202V7.64592H6.99877C7.37052 7.64592 7.50244 7.3715 7.50244 7.1365C7.50244 6.88908 7.32619 6.62517 6.99877 6.62517H6.99786ZM16.6188 6.57508C16.2933 6.57508 16.0564 6.80717 16.0564 7.12783V11.7722C16.0564 12.0929 16.2827 12.3086 16.6188 12.3086C16.9549 12.3086 17.1802 12.0784 17.1802 11.7722V10.2613L17.5837 9.85017L19.0599 11.8598C19.2766 12.1526 19.3931 12.2826 19.6011 12.3037C19.6299 12.3067 19.6599 12.3077 19.6887 12.3077C19.8091 12.3077 20.2059 12.2758 20.2492 11.8676C20.279 11.6384 20.1423 11.4602 19.9766 11.2455L18.3762 9.153L19.7292 7.79042C19.7793 7.73358 19.8245 7.6825 19.8669 7.63725C20.0508 7.43408 20.1433 7.333 20.1433 7.17792C20.1499 6.84767 19.8774 6.66758 19.6059 6.66083C19.3912 6.66083 19.2477 6.77833 19.1591 6.86592L17.1802 8.92575V7.12783C17.1802 6.79758 16.9539 6.57508 16.6188 6.57508ZM12.9143 6.57508C12.5676 6.57508 12.3519 6.7995 12.3519 7.16058V11.6239C12.3519 12.013 12.5714 12.2451 12.9393 12.2451H15.0338C15.3737 12.2451 15.5644 11.9937 15.5711 11.7549C15.5788 11.6143 15.5306 11.4776 15.4392 11.3803C15.3429 11.2782 15.2023 11.2243 15.0347 11.2243H13.4766V7.16058C13.4766 6.7995 13.2619 6.57508 12.9153 6.57508H12.9143ZM9.23094 7.4235C9.23477 7.41292 9.24927 7.41292 9.25311 7.4235L10.1092 10.0157H8.37586L9.23094 7.4235Z" fill="#3C1E1E"/>
</svg>
