<svg width="21" height="21" viewBox="0 0 21 21" fill="none" xmlns="http://www.w3.org/2000/svg">
<path d="M5.37549 6.45241L5.51067 5.70046C6.37246 5.86944 6.80114 6.05531 6.73355 6.37637C6.66596 6.69743 5.78949 6.60976 5.09668 6.41543C4.40387 6.22111 3.54208 5.83564 3.69416 4.9992C3.84624 4.16276 4.96994 3.83325 7.01458 3.83325H18.5952V16.114C18.5952 16.114 10.1393 16.114 4.69166 16.114" stroke="white" stroke-linecap="round" stroke-linejoin="round"/>
<path d="M3.69478 4.99902L1.9881 14.1914C1.89516 14.6815 1.91206 15.1884 2.03035 15.67L2.79075 18.7454L4.60726 16.1516C4.89452 15.746 5.08885 15.2729 5.18179 14.7828L6.73639 6.38464" stroke="white" stroke-linecap="round" stroke-linejoin="round"/>
<path d="M15.9658 9.03655H15.499L15.9357 7.61789C15.9608 7.53207 15.9457 7.44119 15.8955 7.37051C15.8403 7.29983 15.76 7.25439 15.6697 7.25439H14.8968C14.7763 7.25439 14.6659 7.33517 14.6308 7.45129L14.1389 9.03655H13.381L12.9494 7.46139C12.9143 7.34022 12.8039 7.25439 12.6784 7.25439H11.8955C11.77 7.25439 11.6596 7.34022 11.6244 7.46139L11.1928 9.03655H10.435L9.9431 7.45129C9.90797 7.33517 9.79755 7.25439 9.6771 7.25439H8.90419C8.81385 7.25439 8.73354 7.29478 8.67834 7.37051C8.62313 7.44119 8.60807 7.53207 8.63818 7.61789L9.07483 9.03655H8.60807C8.45249 9.03655 8.33203 9.16277 8.33203 9.31423V10.0564C8.33203 10.2129 8.4575 10.334 8.60807 10.334H9.48136L10.2041 12.6715C10.2392 12.7877 10.3496 12.8684 10.4701 12.8684L11.2581 12.8583C11.3785 12.8583 11.4889 12.7725 11.5241 12.6564L12.1815 10.334H12.3722L13.0297 12.6564C13.0649 12.7725 13.1703 12.8583 13.2957 12.8583L14.0837 12.8684C14.2092 12.8684 14.3146 12.7877 14.3547 12.6715L15.0774 10.334H15.9507C16.1063 10.334 16.2268 10.2078 16.2268 10.0564V9.31423C16.2268 9.15772 16.1013 9.03655 15.9507 9.03655H15.9658Z" fill="white"/>
</svg>
