<svg width="30" height="30" viewBox="0 0 30 30" fill="none" xmlns="http://www.w3.org/2000/svg">
<mask id="mask0_1_1476" style="mask-type:alpha" maskUnits="userSpaceOnUse" x="0" y="0" width="30" height="30">
<rect width="30" height="30" fill="#D9D9D9"/>
</mask>
<g mask="url(#mask0_1_1476)">
<path d="M7.25003 22.9614V21.9614H8.26941V13.3077C8.26941 11.5912 8.82264 10.0976 9.92909 8.82675C11.0358 7.55592 12.4344 6.80998 14.125 6.58894V5.12488C14.125 4.88175 14.2098 4.67519 14.3794 4.50519C14.549 4.33498 14.7549 4.24988 14.9972 4.24988C15.2395 4.24988 15.4464 4.33498 15.6178 4.50519C15.7893 4.67519 15.875 4.88175 15.875 5.12488V6.58894C17.5657 6.80998 18.9643 7.55592 20.071 8.82675C21.1774 10.0976 21.7307 11.5912 21.7307 13.3077V21.9614H22.75V22.9614H7.25003ZM14.9891 26.2305C14.4995 26.2305 14.0841 26.0573 13.7428 25.7108C13.4014 25.3644 13.2307 24.9479 13.2307 24.4614H16.7694C16.7694 24.9583 16.595 25.3774 16.2463 25.7186C15.8977 26.0599 15.4787 26.2305 14.9891 26.2305ZM9.26941 21.9614H20.7307V13.3077C20.7307 11.705 20.1762 10.3491 19.0672 9.24019C17.9583 8.13123 16.6025 7.57675 15 7.57675C13.3975 7.57675 12.0418 8.13123 10.9328 9.24019C9.82388 10.3491 9.26941 11.705 9.26941 13.3077V21.9614Z" fill="#444444"/>
</g>
</svg>
