<svg width="40" height="40" viewBox="0 0 40 40" fill="none" xmlns="http://www.w3.org/2000/svg">
<mask id="mask0_1_1770" style="mask-type:alpha" maskUnits="userSpaceOnUse" x="0" y="0" width="40" height="40">
<rect width="40" height="40" fill="#D9D9D9"/>
</mask>
<g mask="url(#mask0_1_1770)">
<path d="M8.4404 34.1667C7.72401 34.1667 7.1104 33.9113 6.59956 33.4004C6.08873 32.8896 5.83331 32.276 5.83331 31.5596V8.44043C5.83331 7.72404 6.08873 7.11043 6.59956 6.59959C7.1104 6.08876 7.72401 5.83334 8.4404 5.83334H31.5596C32.276 5.83334 32.8896 6.08876 33.4004 6.59959C33.9112 7.11043 34.1666 7.72404 34.1666 8.44043V31.5596C34.1666 32.276 33.9112 32.8896 33.4004 33.4004C32.8896 33.9113 32.276 34.1667 31.5596 34.1667H8.4404ZM9.65581 22.0192L16.5704 15.1046L23.44 21.9746L30.3271 15.0875L32.0725 16.8333V8.44043C32.0725 8.29071 32.0244 8.16779 31.9283 8.07168C31.8322 7.97556 31.7093 7.92751 31.5596 7.92751H8.4404C8.29067 7.92751 8.16776 7.97556 8.07165 8.07168C7.97554 8.16779 7.92748 8.29071 7.92748 8.44043V20.2908L9.65581 22.0192ZM8.4404 32.0725H31.5596C31.7093 32.0725 31.8322 32.0245 31.9283 31.9283C32.0244 31.8322 32.0725 31.7093 32.0725 31.5596V19.8075L30.3271 18.0621L23.44 24.9488L16.5704 18.0792L9.65581 24.9829L7.92748 23.265V31.5596C7.92748 31.7093 7.97554 31.8322 8.07165 31.9283C8.16776 32.0245 8.29067 32.0725 8.4404 32.0725ZM7.92748 32.0725V19.8075V21.9017V7.92751V32.0725Z" fill="#959595"/>
</g>
</svg>
