<svg width="40" height="40" viewBox="0 0 40 40" fill="none" xmlns="http://www.w3.org/2000/svg">
<mask id="mask0_1_1790" style="mask-type:alpha" maskUnits="userSpaceOnUse" x="0" y="0" width="40" height="40">
<rect width="40" height="40" fill="#D9D9D9"/>
</mask>
<g mask="url(#mask0_1_1790)">
<path d="M6.77377 30.8333C6.05738 30.8333 5.44377 30.5754 4.93294 30.0596C4.4221 29.544 4.16669 28.9329 4.16669 28.2262V11.7737C4.16669 11.0574 4.4221 10.4437 4.93294 9.93291C5.44377 9.42207 6.05738 9.16666 6.77377 9.16666H33.2263C33.9427 9.16666 34.5563 9.42207 35.0671 9.93291C35.5779 10.4437 35.8334 11.0574 35.8334 11.7737V28.2262C35.8334 28.9329 35.5779 29.544 35.0671 30.0596C34.5563 30.5754 33.9427 30.8333 33.2263 30.8333H6.77377ZM6.77377 28.7392H33.2263C33.3546 28.7392 33.4722 28.6858 33.5792 28.5792C33.6859 28.4722 33.7392 28.3546 33.7392 28.2262V11.7737C33.7392 11.6454 33.6859 11.5278 33.5792 11.4208C33.4722 11.3142 33.3546 11.2608 33.2263 11.2608H6.77377C6.64544 11.2608 6.5278 11.3142 6.42085 11.4208C6.31419 11.5278 6.26085 11.6454 6.26085 11.7737V28.2262C6.26085 28.3546 6.31419 28.4722 6.42085 28.5792C6.5278 28.6858 6.64544 28.7392 6.77377 28.7392ZM13.1196 26.3675H26.8804V23.825H13.1196V26.3675ZM8.58752 21.2712H11.1304V18.7287H8.58752V21.2712ZM13.6667 21.2712H16.2096V18.7287H13.6667V21.2712ZM18.7288 21.2712H21.2713V18.7287H18.7288V21.2712ZM23.8075 21.2712H26.3504V18.7287H23.8075V21.2712ZM28.8696 21.2712H31.4125V18.7287H28.8696V21.2712ZM8.58752 16.1646H11.1304V13.6217H8.58752V16.1646ZM13.6667 16.1646H16.2096V13.6217H13.6667V16.1646ZM18.7288 16.1646H21.2713V13.6217H18.7288V16.1646ZM23.8075 16.1646H26.3504V13.6217H23.8075V16.1646ZM28.8696 16.1646H31.4125V13.6217H28.8696V16.1646Z" fill="#959595"/>
</g>
</svg>
