<svg width="40" height="40" viewBox="0 0 40 40" fill="none" xmlns="http://www.w3.org/2000/svg">
<mask id="mask0_1_1787" style="mask-type:alpha" maskUnits="userSpaceOnUse" x="0" y="0" width="40" height="40">
<rect width="40" height="40" fill="#D9D9D9"/>
</mask>
<g mask="url(#mask0_1_1787)">
<path d="M20 37.3717L14.3675 31.7221H25.6495L20 37.3717ZM6.77371 27.5C6.05732 27.5 5.44371 27.2446 4.93288 26.7338C4.42204 26.2229 4.16663 25.6093 4.16663 24.8929V8.44043C4.16663 7.72404 4.42204 7.11043 4.93288 6.59959C5.44371 6.08876 6.05732 5.83334 6.77371 5.83334H33.2262C33.9426 5.83334 34.5562 6.08876 35.067 6.59959C35.5779 7.11043 35.8333 7.72404 35.8333 8.44043V24.8929C35.8333 25.6093 35.5779 26.2229 35.067 26.7338C34.5562 27.2446 33.9426 27.5 33.2262 27.5H6.77371ZM6.77371 25.4058H33.2262C33.3545 25.4058 33.4722 25.3525 33.5791 25.2458C33.6858 25.1389 33.7391 25.0213 33.7391 24.8929V8.44043C33.7391 8.31209 33.6858 8.19445 33.5791 8.08751C33.4722 7.98084 33.3545 7.92751 33.2262 7.92751H6.77371C6.64538 7.92751 6.52774 7.98084 6.42079 8.08751C6.31413 8.19445 6.26079 8.31209 6.26079 8.44043V24.8929C6.26079 25.0213 6.31413 25.1389 6.42079 25.2458C6.52774 25.3525 6.64538 25.4058 6.77371 25.4058ZM13.6045 23.0342H26.4125V20.4917H13.6045V23.0342ZM8.46371 17.9379H11.0062V15.3954H8.46371V17.9379ZM13.6045 17.9379H16.1475V15.3954H13.6045V17.9379ZM18.7287 17.9379H21.2712V15.3954H18.7287V17.9379ZM23.8695 17.9379H26.4125V15.3954H23.8695V17.9379ZM28.9937 17.9379H31.5362V15.3954H28.9937V17.9379ZM8.46371 12.8313H11.0062V10.2883H8.46371V12.8313ZM13.6045 12.8313H16.1475V10.2883H13.6045V12.8313ZM18.7287 12.8313H21.2712V10.2883H18.7287V12.8313ZM23.8695 12.8313H26.4125V10.2883H23.8695V12.8313ZM28.9937 12.8313H31.5362V10.2883H28.9937V12.8313Z" fill="#959595"/>
</g>
</svg>
