<svg width="23" height="23" viewBox="0 0 23 23" fill="none" xmlns="http://www.w3.org/2000/svg">
<mask id="mask0_1_1839" style="mask-type:luminance" maskUnits="userSpaceOnUse" x="0" y="0" width="23" height="23">
<path d="M22.434 0H0V22.434H22.434V0Z" fill="white"/>
</mask>
<g mask="url(#mask0_1_1839)">
<path d="M22.435 11.217C22.435 5.02208 17.413 0 11.218 0C5.02306 0 0.000976562 5.02208 0.000976562 11.217C0.000976562 16.4773 3.62273 20.8915 8.50839 22.1038V14.6449H6.19548V11.217H8.50839V9.74C8.50839 5.92217 10.2363 4.15258 13.9846 4.15258C14.6953 4.15258 15.9216 4.29208 16.4231 4.43117V7.53833C16.1584 7.5105 15.6986 7.49658 15.1274 7.49658C13.2882 7.49658 12.5775 8.19333 12.5775 10.0047V11.217H16.2414L15.6119 14.6449H12.5775V22.3519C18.1317 21.6812 22.435 16.9521 22.435 11.217Z" fill="#0866FF"/>
<path d="M15.6117 14.6452L16.2412 11.2173H12.5773V10.005C12.5773 8.19367 13.2881 7.49683 15.1271 7.49683C15.6983 7.49683 16.1582 7.51075 16.423 7.53858V4.4315C15.9213 4.29192 14.6951 4.15283 13.9844 4.15283C10.2361 4.15283 8.50823 5.92241 8.50823 9.74025V11.2173H6.19531V14.6452H8.50823V22.1041C9.37598 22.3195 10.2836 22.4343 11.2178 22.4343C11.6777 22.4343 12.1313 22.4061 12.5769 22.3522V14.6452H15.6117Z" fill="white"/>
</g>
</svg>
