<svg width="24" height="48" viewBox="0 0 24 48" fill="none" xmlns="http://www.w3.org/2000/svg">
<mask id="mask0_710_1263" style="mask-type:alpha" maskUnits="userSpaceOnUse" x="0" y="24" width="24" height="24">
<rect y="24" width="24" height="24" fill="#D9D9D9"/>
</mask>
<g mask="url(#mask0_710_1263)">
<path d="M15.7736 36.9718L14.6506 35.8488C14.8006 35.0207 14.5643 34.2761 13.9418 33.6151C13.3195 32.9543 12.5557 32.6988 11.6506 32.8488L10.5276 31.7258C10.7532 31.6245 10.9846 31.5485 11.2218 31.4978C11.459 31.4472 11.7186 31.4218 12.0006 31.4218C13.1352 31.4218 14.0984 31.8177 14.8901 32.6093C15.6817 33.401 16.0776 34.3642 16.0776 35.4988C16.0776 35.7808 16.0522 36.0437 16.0016 36.2873C15.9509 36.5308 15.8749 36.759 15.7736 36.9718ZM18.9543 40.0833L17.8506 39.0488C18.4839 38.5655 19.0464 38.0363 19.5381 37.4613C20.0297 36.8863 20.4506 36.2322 20.8006 35.4988C19.9672 33.8155 18.7714 32.478 17.2131 31.4863C15.6547 30.4947 13.9172 29.9988 12.0006 29.9988C11.5172 29.9988 11.0422 30.0322 10.5756 30.0988C10.1089 30.1655 9.65056 30.2655 9.20056 30.3988L8.03531 29.2336C8.66731 28.9823 9.31281 28.797 9.97181 28.6778C10.6308 28.5585 11.3071 28.4988 12.0006 28.4988C14.3441 28.4988 16.4575 29.145 18.3408 30.4373C20.2241 31.7297 21.5979 33.4168 22.4621 35.4988C22.0916 36.3923 21.6131 37.2263 21.0266 38.0008C20.4399 38.7752 19.7491 39.4693 18.9543 40.0833ZM19.7621 45.8681L15.7161 41.8526C15.2032 42.0424 14.6349 42.1976 14.0111 42.3181C13.3874 42.4386 12.7172 42.4988 12.0006 42.4988C9.65056 42.4988 7.53715 41.8527 5.66031 40.5603C3.78331 39.268 2.40956 37.5808 1.53906 35.4988C1.90823 34.6155 2.38515 33.7915 2.96981 33.0268C3.55448 32.262 4.19806 31.5988 4.90056 31.0373L2.13131 28.2373L3.18531 27.1836L20.8158 44.8141L19.7621 45.8681ZM5.95456 32.0911C5.42623 32.5116 4.9124 33.0171 4.41306 33.6076C3.91373 34.1979 3.50956 34.8283 3.20056 35.4988C4.0339 37.1822 5.22973 38.5197 6.78806 39.5113C8.3464 40.503 10.0839 40.9988 12.0006 40.9988C12.4557 40.9988 12.909 40.9603 13.3603 40.8833C13.8115 40.8065 14.1941 40.7271 14.5083 40.6451L13.2428 39.3488C13.0723 39.418 12.8749 39.4731 12.6506 39.5141C12.4262 39.5553 12.2096 39.5758 12.0006 39.5758C10.8659 39.5758 9.90273 39.18 9.11106 38.3883C8.3194 37.5967 7.92356 36.6335 7.92356 35.4988C7.92356 35.2963 7.94415 35.0845 7.98531 34.8633C8.02631 34.6422 8.0814 34.4399 8.15056 34.2566L5.95456 32.0911Z" fill="#111111"/>
</g>
<mask id="mask1_710_1263" style="mask-type:alpha" maskUnits="userSpaceOnUse" x="0" y="0" width="24" height="24">
<rect width="24" height="24" fill="#D9D9D9"/>
</mask>
<g mask="url(#mask1_710_1263)">
<path d="M12.0028 15.577C13.136 15.577 14.0984 15.1804 14.8901 14.3872C15.6817 13.5941 16.0776 12.6309 16.0776 11.4978C16.0776 10.3646 15.681 9.40217 14.8878 8.6105C14.0946 7.81883 13.1315 7.423 11.9983 7.423C10.8651 7.423 9.90273 7.81958 9.11106 8.61275C8.3194 9.40592 7.92356 10.3691 7.92356 11.5023C7.92356 12.6354 8.32015 13.5978 9.11331 14.3895C9.90648 15.1812 10.8696 15.577 12.0028 15.577ZM12.0006 14.2C11.2506 14.2 10.6131 13.9375 10.0881 13.4125C9.56306 12.8875 9.30056 12.25 9.30056 11.5C9.30056 10.75 9.56306 10.1125 10.0881 9.5875C10.6131 9.0625 11.2506 8.8 12.0006 8.8C12.7506 8.8 13.3881 9.0625 13.9131 9.5875C14.4381 10.1125 14.7006 10.75 14.7006 11.5C14.7006 12.25 14.4381 12.8875 13.9131 13.4125C13.3881 13.9375 12.7506 14.2 12.0006 14.2ZM12.0018 18.5C9.70231 18.5 7.60706 17.8657 5.71606 16.597C3.82506 15.3285 2.43273 13.6295 1.53906 11.5C2.43273 9.3705 3.82456 7.6715 5.71456 6.403C7.60473 5.13433 9.69965 4.5 11.9993 4.5C14.2988 4.5 16.3941 5.13433 18.2851 6.403C20.1761 7.6715 21.5684 9.3705 22.4621 11.5C21.5684 13.6295 20.1766 15.3285 18.2866 16.597C16.3964 17.8657 14.3015 18.5 12.0018 18.5ZM12.0006 17C13.8839 17 15.6131 16.5042 17.1881 15.5125C18.7631 14.5208 19.9672 13.1833 20.8006 11.5C19.9672 9.81667 18.7631 8.47917 17.1881 7.4875C15.6131 6.49583 13.8839 6 12.0006 6C10.1172 6 8.38806 6.49583 6.81306 7.4875C5.23806 8.47917 4.0339 9.81667 3.20056 11.5C4.0339 13.1833 5.23806 14.5208 6.81306 15.5125C8.38806 16.5042 10.1172 17 12.0006 17Z" fill="#111111"/>
</g>
</svg>
