<svg width="25" height="25" viewBox="0 0 25 25" fill="none" xmlns="http://www.w3.org/2000/svg">
<path fill-rule="evenodd" clip-rule="evenodd" d="M12.5 25C5.5965 25 0 19.4035 0 12.5C0 5.5965 5.5965 0 12.5 0C19.4035 0 25 5.5965 25 12.5C25 19.4035 19.4035 25 12.5 25Z" fill="#231F20"/>
<path fill-rule="evenodd" clip-rule="evenodd" d="M13.955 13.363L13.9985 13.3405C14.2635 13.2065 14.5185 13.1325 14.715 13.1325C14.8735 13.1325 14.995 13.179 15.076 13.2705C15.1675 13.3735 15.202 13.5295 15.1775 13.7345C15.0275 15.0025 13.7725 16.201 12.6695 16.7785C11.396 17.445 9.97549 17.592 9.69099 17.6155C9.67449 17.6165 9.65799 17.6175 9.63949 17.6175C9.66399 17.5785 11.533 14.5575 13.9545 13.3625M16.8655 6.14851C16.4095 7.64451 15.286 8.60351 14.4265 9.21851C14.1985 9.38151 14.4235 9.50351 14.4295 9.73451C14.437 10.022 13.92 10.379 13.132 11.242C14.637 8.32451 16.8655 6.14851 16.8655 6.14851ZM9.44749 18.0075C9.45 18.0075 9.5025 18.006 9.595 18.001C10.0585 17.9735 11.5455 17.837 13.082 17.1625C13.8905 16.8075 16.191 15.4675 16.191 13.667C16.191 12.985 15.777 12.5945 15.0725 12.5945C13.9995 12.5945 12.702 13.4615 11.2525 14.9725C11.2155 15.0195 11.1475 14.9865 11.3345 14.6815C11.6965 14.091 12.518 12.5835 14.316 10.8085C15.367 9.77101 14.832 9.37351 14.832 9.37351C14.832 9.37351 15.8935 8.88501 16.6925 7.84251C17.171 7.21851 17.7775 5.99451 17.513 5.66101C17.294 5.38451 16.8455 5.52451 15.8425 6.41101C14.595 7.51251 12.7045 10.722 11.678 12.647C11.425 13.122 9.94949 15.681 8.89949 17.497C8.68859 17.4223 8.48941 17.3179 8.30799 17.187L8.17949 17.4135C8.28499 17.524 8.482 17.6705 8.7305 17.7895C8.222 18.6685 7.84749 19.3145 7.82499 19.3545C7.75499 19.475 7.81949 19.5275 7.89699 19.493L8.17349 19.3725C8.88099 19.0655 9.02849 18.9375 9.07999 18.6425C9.17299 18.1025 9.447 18.0075 9.44749 18.0075Z" fill="white"/>
</svg>
